<svg viewBox="0 0 240 200" fill="none" xmlns="http://www.w3.org/2000/svg">
  <!-- V60 Dripper -->
  <path d="M95 130 L120 80 L145 130" stroke="#3C2415" stroke-width="1.5" stroke-linecap="round" stroke-linejoin="round" fill="none"/>
  <ellipse cx="120" cy="130" rx="25" ry="4" stroke="#3C2415" stroke-width="1.5" fill="none"/>
  <line x1="120" y1="134" x2="120" y2="150" stroke="#3C2415" stroke-width="1.5"/>

  <!-- Server/Carafe -->
  <path d="M100 150 Q100 170 108 175 L132 175 Q140 170 140 150" stroke="#3C2415" stroke-width="1.5" fill="none" stroke-linecap="round"/>
  <ellipse cx="120" cy="150" rx="20" ry="3" stroke="#3C2415" stroke-width="1" fill="none"/>

  <!-- Base -->
  <ellipse cx="120" cy="178" rx="18" ry="3" stroke="#3C2415" stroke-width="1" fill="none"/>

  <!-- Steam with floral tips -->
  <path d="M110 78 Q105 60 112 45 Q115 38 110 30" stroke="#3C2415" stroke-width="1" fill="none" stroke-linecap="round" opacity="0.6"/>
  <path d="M120 76 Q120 55 118 42 Q117 35 120 25" stroke="#3C2415" stroke-width="1" fill="none" stroke-linecap="round" opacity="0.6"/>
  <path d="M130 78 Q135 60 128 45 Q125 38 130 30" stroke="#3C2415" stroke-width="1" fill="none" stroke-linecap="round" opacity="0.6"/>

  <!-- Jasmine flowers at steam tips -->
  <g transform="translate(108, 24)" opacity="0.7">
    <circle cx="0" cy="0" r="2" fill="#C5A572"/>
    <circle cx="0" cy="-4" r="2.5" fill="#C5A572" opacity="0.5"/>
    <circle cx="3.5" cy="-1.5" r="2.5" fill="#C5A572" opacity="0.5"/>
    <circle cx="-3.5" cy="-1.5" r="2.5" fill="#C5A572" opacity="0.5"/>
  </g>
  <g transform="translate(120, 19)" opacity="0.7">
    <circle cx="0" cy="0" r="2" fill="#C5A572"/>
    <circle cx="0" cy="-4" r="2.5" fill="#C5A572" opacity="0.5"/>
    <circle cx="3.5" cy="-1.5" r="2.5" fill="#C5A572" opacity="0.5"/>
    <circle cx="-3.5" cy="-1.5" r="2.5" fill="#C5A572" opacity="0.5"/>
  </g>
  <g transform="translate(132, 24)" opacity="0.7">
    <circle cx="0" cy="0" r="2" fill="#C5A572"/>
    <circle cx="0" cy="-4" r="2.5" fill="#C5A572" opacity="0.5"/>
    <circle cx="3.5" cy="-1.5" r="2.5" fill="#C5A572" opacity="0.5"/>
    <circle cx="-3.5" cy="-1.5" r="2.5" fill="#C5A572" opacity="0.5"/>
  </g>

  <!-- Citrus slices -->
  <g transform="translate(75, 55)" opacity="0.4">
    <circle cx="0" cy="0" r="8" stroke="#C5A572" stroke-width="1" fill="none"/>
    <line x1="-5" y1="0" x2="5" y2="0" stroke="#C5A572" stroke-width="0.5"/>
    <line x1="0" y1="-5" x2="0" y2="5" stroke="#C5A572" stroke-width="0.5"/>
    <line x1="-3.5" y1="-3.5" x2="3.5" y2="3.5" stroke="#C5A572" stroke-width="0.5"/>
    <line x1="3.5" y1="-3.5" x2="-3.5" y2="3.5" stroke="#C5A572" stroke-width="0.5"/>
  </g>
  <g transform="translate(165, 70)" opacity="0.35">
    <circle cx="0" cy="0" r="6" stroke="#C5A572" stroke-width="1" fill="none"/>
    <line x1="-4" y1="0" x2="4" y2="0" stroke="#C5A572" stroke-width="0.5"/>
    <line x1="0" y1="-4" x2="0" y2="4" stroke="#C5A572" stroke-width="0.5"/>
  </g>

  <!-- Brightness radiating dashes -->
  <g opacity="0.3" stroke="#3C2415" stroke-width="0.8" stroke-linecap="round">
    <line x1="80" y1="85" x2="75" y2="82"/>
    <line x1="160" y1="85" x2="165" y2="82"/>
    <line x1="85" y1="105" x2="78" y2="105"/>
    <line x1="155" y1="105" x2="162" y2="105"/>
  </g>
</svg>
